<?xml version="1.0" encoding="utf-8"?>
<!-- Generator: Adobe Illustrator 16.0.0, SVG Export Plug-In . SVG Version: 6.00 Build 0)  -->
<!DOCTYPE svg PUBLIC "-//W3C//DTD SVG 1.1//EN" "http://www.w3.org/Graphics/SVG/1.1/DTD/svg11.dtd">
<svg version="1.1" id="Layer_1" xmlns="http://www.w3.org/2000/svg" xmlns:xlink="http://www.w3.org/1999/xlink" x="0px" y="0px"
	 width="512px" height="512px" viewBox="0 0 512 512" enable-background="new 0 0 512 512" xml:space="preserve">
<g>
	<path d="M361.369,128.33c-36.91-30.272-86.158-43.222-133.333-35.052c11.01,15.401,33.816,48.533,55.611,87.752
		C328.564,163.055,352.463,138.911,361.369,128.33z"/>
	<path d="M180.871,109.129c-41.67,21.488-72.657,60.013-84.616,105.073c22.612-0.368,77.671-2.982,140.268-18.547
		C213.359,155.457,189.797,121.63,180.871,109.129z"/>
	<path d="M311.61,237.734l1.716,4.085c11.234-1.185,23.082-1.797,35.379-1.797c31.865,0,59.522,4.044,73.208,6.414
		c-1.961-31.661-13.073-62.341-31.886-87.915c-11.336,12.787-39.035,39.627-86.832,60.503
		C306.137,225.192,308.955,231.443,311.61,237.734z"/>
	<path d="M265.773,251.665c-2.573-5.577-5.229-11.112-8.007-16.627c-73.607,21.08-144.446,23.184-166.976,23.246
		c0.378,37.258,13.257,73.086,36.543,102.01C142.592,337.333,188.735,276.789,265.773,251.665z"/>
	<path d="M159.464,390.83c28.372,20.61,61.8,31.478,97.036,31.478c20.59,0,40.607-3.759,59.604-11.112
		c-3.514-18.996-13.114-64.344-33.07-117.738C203.912,322.811,169.208,373.814,159.464,390.83z"/>
	<path d="M256.5,5.281c-138.614,0-251,112.386-251,251c0,138.613,112.386,251,251,251c138.613,0,251-112.387,251-251
		C507.5,117.667,395.113,5.281,256.5,5.281z M256.5,465.448c-115.328,0-209.156-93.799-209.156-209.167
		c0-115.328,93.829-209.167,209.156-209.167c115.328,0,209.167,93.839,209.167,209.167
		C465.667,371.649,371.828,465.448,256.5,465.448z"/>
	<path d="M328.892,282.305c16.423,46.776,25.206,86.077,28.964,105.277c31.539-24.45,53.436-59.686,61.198-98.659
		c-11.03-2.941-34.644-8.13-63.649-8.13C346.376,280.793,337.512,281.283,328.892,282.305z"/>
</g>
</svg>
