<?xml version="1.0" encoding="utf-8"?>
<!-- Generator: Adobe Illustrator 16.0.0, SVG Export Plug-In . SVG Version: 6.00 Build 0)  -->
<!DOCTYPE svg PUBLIC "-//W3C//DTD SVG 1.1//EN" "http://www.w3.org/Graphics/SVG/1.1/DTD/svg11.dtd">
<svg version="1.1" id="Layer_1" xmlns="http://www.w3.org/2000/svg" xmlns:xlink="http://www.w3.org/1999/xlink" x="0px" y="0px"
	 width="512px" height="512px" viewBox="0 0 512 512" enable-background="new 0 0 512 512" xml:space="preserve">
<path d="M504.032,267.006c0.854,0.285,1.343,1.14,1.078,2.035c-0.224,0.691-0.854,1.139-1.525,1.139
	c-0.163,0-0.325-0.04-0.488-0.081c-42.237-12.899-94.444-14.689-111.819-15.259c-13.469,29.583-39.531,42.644-80.467,48.789
	c-5.024,0.732-10.274,1.384-15.768,1.953c16.236,10.214,20.915,23.031,20.915,57.741c0,34.668-0.468,39.348-0.366,47.323
	c0.204,13.103,19.369,19.328,18.678,23.601c-0.773,4.191-16.073,3.5-23.234,0.977c-20.346-7.039-18.312-23.967-18.312-23.967
	l-0.671-46.388c0,0,1.403-24.943-7.833-24.943c0,5.005,0,57.984,0,75.929c0,16.48,11.556,21.485,11.556,27.589
	c0,10.498-21.078-0.977-27.608-7.527c-9.908-9.929-8.77-31.048-8.525-47.731c0.225-16.113-0.162-51.352-0.162-51.352l-6.725,0.122
	c0,0,2.757,77.028-3.55,91.025c-8.158,18.026-32.736,24.212-32.736,16.032c0-5.533,6.043-3.824,9.41-16.154
	c2.858-10.539,1.872-89.031,1.872-89.031s-7.884,4.679-7.884,19.368c0,6.715-0.183,45.167-0.183,56.602
	c0,14.404-20.447,22.584-30.244,22.584c-4.985,0-11.18-0.244-11.18-2.89c0-6.633,18.677-10.539,18.677-24.374
	c0-12.004-0.244-42.888-0.244-42.888s-9.42,1.587-22.868,1.587c-33.886,0-44.577-21.607-49.694-33.692
	c-6.643-15.788-15.239-23.153-24.384-29.094c-5.605-3.622-6.917-7.895-0.417-9.156c30.01-5.656,37.669,34.018,57.7,40.366
	c14.283,4.476,32.685,2.522,41.82-3.378c1.21-12.085,9.949-22.583,17.223-28.076c-0.468-0.082-0.946-0.123-1.404-0.163
	c-50.122-5.087-79.907-22.706-95.411-50.905c-53.305,1.302-83.549,8.871-105.705,14.405c-1.617,0.407-3.204,0.773-4.72,1.18
	c-0.142,0.041-0.254,0.041-0.376,0.041c-0.732,0-1.404-0.488-1.566-1.221c-0.234-0.896,0.295-1.75,1.16-1.994
	c1.526-0.325,3.113-0.732,4.71-1.139c22.105-5.534,52.146-13.062,104.82-14.446c-1.455-2.93-2.767-5.9-3.937-9.033
	c-20.488-0.163-83.589,2.726-105.207,8.097c-0.122,0-0.254,0.041-0.387,0.041c-0.722,0-1.394-0.529-1.577-1.262
	c-0.204-0.854,0.335-1.709,1.19-1.953c21.434-5.29,82.99-8.22,104.82-8.138c-4.914-14.445-7.101-30.966-7.101-49.48
	c0-32.756,10.224-45.126,23.957-62.624c-10.499-37.395,3.753-62.909,3.753-62.909s22.055-4.557,63.732,25.27
	c22.594-9.685,82.837-10.458,111.341-2.157c17.477-11.556,49.46-27.996,62.38-23.357c3.499,5.615,11.007,22.014,4.577,58.066
	c4.374,7.894,27.161,24.74,27.263,72.308c-0.366,17.579-2.217,32.39-5.615,44.923c54.363-0.447,86.326,4.029,108.34,8.098
	c0.875,0.163,1.445,1.018,1.323,1.872c-0.163,0.773-0.835,1.343-1.587,1.343c-0.122,0-0.204-0.041-0.306-0.041
	c-21.993-4.069-54.018-8.545-108.686-8.016c-0.956,3.133-2.055,6.185-3.215,9.074C411.257,252.276,462.365,254.27,504.032,267.006z"
	/>
</svg>
