<?xml version="1.0" encoding="utf-8"?>
<!-- Generator: Adobe Illustrator 16.0.0, SVG Export Plug-In . SVG Version: 6.00 Build 0)  -->
<!DOCTYPE svg PUBLIC "-//W3C//DTD SVG 1.1//EN" "http://www.w3.org/Graphics/SVG/1.1/DTD/svg11.dtd">
<svg version="1.1" id="Layer_1" xmlns="http://www.w3.org/2000/svg" xmlns:xlink="http://www.w3.org/1999/xlink" x="0px" y="0px"
	 width="512px" height="512px" viewBox="0 0 512 512" enable-background="new 0 0 512 512" xml:space="preserve">
<path d="M442.194,1.5H69.467c-37.267,0-67.77,30.483-67.77,67.75v372.727c0,37.268,30.503,67.771,67.77,67.771h372.728
	c37.268,0,67.749-30.503,67.749-67.771V69.249C509.943,31.982,479.462,1.5,442.194,1.5z M351.033,86.208
	c0-14.911,12.203-27.134,27.114-27.134h48.537c14.931,0,27.133,12.223,27.133,27.134v48.537c0,14.911-12.202,27.134-27.133,27.134
	h-48.537c-14.911,0-27.114-12.223-27.114-27.134V86.208z M159.18,245.779c0.29-2.75,0.724-5.46,1.262-8.189
	c0.062-0.414,0.103-0.848,0.186-1.262c1.22-6.164,3.082-12.057,5.398-17.724c0.042-0.062,0.083-0.166,0.103-0.269
	c14.621-35.136,49.261-59.829,89.692-59.829c40.451,0,75.091,24.693,89.713,59.829c0.041,0.103,0.061,0.207,0.082,0.269
	c2.358,5.667,4.178,11.56,5.418,17.724c0.083,0.414,0.124,0.848,0.208,1.262c0.496,2.729,0.951,5.439,1.24,8.189
	c0.311,3.226,0.497,6.535,0.497,9.823c0,53.667-43.492,97.138-97.158,97.138c-53.645,0-97.116-43.471-97.116-97.138
	C158.704,252.314,158.869,249.005,159.18,245.779z M454.065,423.923c0,14.889-12.223,27.07-27.134,27.07H84.729
	c-14.911,0-27.113-12.182-27.113-27.07V218.336h43.388c-2.854,11.974-4.425,24.465-4.425,37.267
	c0,87.955,71.306,159.261,159.241,159.261c87.976,0,159.262-71.306,159.262-159.261c0-12.801-1.552-25.292-4.446-37.267h43.43
	V423.923z"/>
</svg>
