<?xml version="1.0" encoding="utf-8"?>
<!-- Generator: Adobe Illustrator 16.0.0, SVG Export Plug-In . SVG Version: 6.00 Build 0)  -->
<!DOCTYPE svg PUBLIC "-//W3C//DTD SVG 1.1//EN" "http://www.w3.org/Graphics/SVG/1.1/DTD/svg11.dtd">
<svg version="1.1" id="Layer_1" xmlns="http://www.w3.org/2000/svg" xmlns:xlink="http://www.w3.org/1999/xlink" x="0px" y="0px"
	 width="512px" height="512px" viewBox="0 0 512 512" enable-background="new 0 0 512 512" xml:space="preserve">
<path d="M256.339,6.544c-137.52,0-249.01,111.471-249.01,249c0,101.967,61.318,189.546,149.049,228.067
	c-0.699-17.406-0.122-38.258,4.327-57.184c4.792-20.224,32.057-135.686,32.057-135.686s-7.963-15.887-7.963-39.373
	c0-36.92,21.388-64.479,48.025-64.479c22.635,0,33.577,17.001,33.577,37.387c0,22.756-14.519,56.84-21.986,88.369
	c-6.231,26.404,13.242,47.944,39.291,47.944c47.194,0,78.968-60.589,78.968-132.383c0-54.57-36.759-95.421-103.608-95.421
	c-75.533,0-122.585,56.333-122.585,119.251c0,21.702,6.394,37.002,16.403,48.856c4.61,5.43,5.249,7.599,3.577,13.859
	c-1.185,4.58-3.931,15.624-5.066,19.98c-1.662,6.302-6.758,8.551-12.472,6.241c-34.792-14.205-50.983-52.301-50.983-95.138
	c0-70.741,59.656-155.544,177.956-155.544c95.057,0,157.631,68.795,157.631,142.636c0,97.671-54.307,170.66-134.348,170.66
	c-26.87,0-52.179-14.528-60.832-31.043c0,0-14.458,57.366-17.518,68.471c-5.269,19.189-15.613,38.359-25.066,53.334
	c22.401,6.586,46.06,10.192,70.579,10.192c137.519,0,248.99-111.471,248.99-249S393.858,6.544,256.339,6.544"/>
</svg>
