<?xml version="1.0" encoding="UTF-8"?>
<svg width="466px" height="362px" viewBox="0 0 466 362" version="1.1" xmlns="http://www.w3.org/2000/svg" xmlns:xlink="http://www.w3.org/1999/xlink">
    <!-- Generator: Sketch 48.2 (47327) - http://www.bohemiancoding.com/sketch -->
    <title>Group</title>
    <desc>Created with Sketch.</desc>
    <defs></defs>
    <g id="Page-1" stroke="none" stroke-width="1" fill="none" fill-rule="evenodd">
        <g id="Group" transform="translate(0.000000, 1.000000)">
            <path d="M316.532227,238.876953 C316.047852,244.176758 314.923828,249.494141 312.969727,254.21582 C308.833984,254.525391 133.427734,254.695313 78.7841797,348.356445 C59.5615234,343.991211 -65.4882813,306.492187 46.2050781,261.347656 C70.0292969,253.386719 164.707031,225.459961 316.532227,238.876953 Z" id="Path" fill="#C4EC57"></path>
            <path d="M321.365234,203.012695 C321.353516,208.779297 324.461914,210.494141 323.429688,218.816406 C322.989258,229.022461 320.716797,252.776367 316.448242,259.856445 C312.037109,264.981445 312.97168,265.549805 302.923828,271.634766 C301.1875,273.638672 299.509766,276.007812 305.760742,275.120117 C309.446289,274.694336 315.189453,270.787109 321.365234,268.842773 C324.318359,269.285156 324.560547,269.339844 326.435547,271.634766 C328.310547,273.929688 329.233398,279.016602 335.573242,273.929688 C341.913086,268.842773 348.398438,262.110352 351.602539,266.077148 C354.806641,270.043945 358.499023,274.165039 362.015137,269.759766 C363.613281,268.803711 364.820801,267.84668 367.21875,269.10791 C370.473145,271.293945 375.88623,272.234863 379.739258,271.94043 C382.140625,272.135742 386.604004,270.625 379.287109,265.587891 C375.444336,262.496094 364.274414,249.501953 358.599609,234.047852 C357.472656,226.708008 356.168945,217.243164 360.858887,210.12793 C364.477539,206.009766 366.746094,205.383789 368.282227,199.540039 C368.378906,197.640625 367.419922,195.473633 363.009766,196.996094 C359.053711,200.522461 354.060547,206.517578 351.602539,201.756836 C350.729492,198.139648 349.991211,196.900391 351.602539,193.980469 C351.399414,190.664062 350.917969,188.821289 345.175781,189.117188 C342.558594,190.332031 340.486328,192.473633 338.014648,195.489258 C333.644531,195.810547 334.576172,196.753906 330.505859,192.935547 C327.439453,192.786133 327.078125,192.751953 325.253906,195.489258 C324.842773,199.910156 322.03418,200.65918 321.365234,203.012695 Z" id="Path-2" stroke="#9C6300" fill="#9C6300"></path>
            <path d="M85.1523438,350.17464 C94.0449219,352.58912 173.814453,368.259897 291.605469,353.698054 C288.035156,345.083644 276.484375,322.424217 311.871094,297.28324 C327.398438,286.798828 341.827148,282.156222 357.163086,276.179199 C352.595703,275.676758 350.55127,271.750977 348.508789,270.754395 C346.466309,270.824219 345.197266,272.94873 342.888672,274.850664 C338.138672,278.614413 328.571289,287.345206 321.924805,274.218441 C319.222656,273.50534 303.103516,284.560861 296.848633,278.635125 C294.925948,275.135143 293.348633,271.906536 301.654297,266.062664 C304.661133,264.488518 308.8125,261.143949 310.53418,258.53418 C297.145508,259.579666 221.181641,261.170579 153.003906,292.043975 C128.513672,305.106631 101.164063,321.654573 85.1523438,350.17464 Z" id="Path-3" stroke="#A8D03B" fill="#A8D03B"></path>
            <path d="M298.005859,352.152344 C339.258464,324.073568 392.354167,308.919271 457.292969,306.689453 C461.404297,301.674805 476.759766,286.415039 445.676758,266.59668 C426.557617,256.864258 409.165039,253.038086 370.876953,246.610352 C378.165039,259.40332 385.164551,262.418457 387.37207,266.59668 C389.255914,271.157635 389.691406,274.553223 383.110352,276.228516 C374.833008,277.791992 368.509766,274.773438 366.740234,274.773438 C366.650391,281.958984 329.173828,285.054688 303.931641,311.255859 C293.067057,322.35612 291.091797,335.988281 298.005859,352.152344 Z" id="Path-4" stroke="#65DAE7" fill="#65DAE7"></path>
            <path d="M420.668199,70.2415577 C421.249188,70.084337 421.863924,70 422.5,70 C426.089851,70 429,72.6862915 429,76 C429,76.4907537 428.936172,76.9677462 428.81576,77.4242898 C432.407242,78.5406142 435,81.734343 435,85.5 C435,90.1729655 431.00731,93.9651961 426.068092,93.9997618 C427.562467,96.8995715 428.356342,99.9121647 428.449714,103.037541 C428.629603,103.01279 428.813308,103 429,103 C431.209139,103 433,104.790861 433,107 C433,109.209139 431.209139,111 429,111 C428.656787,111 428.323669,110.956774 428.005795,110.875469 C427.699375,113.807076 427.263175,116.811905 426.777965,119.049974 C429.724147,119.431414 432,121.94993 432,125 C432,128.313708 429.313708,131 426,131 C425.868588,131 425.738162,130.995775 425.608852,130.987454 C425.111455,133.445961 424.544788,135.242575 423.908853,136.377297 C425.723294,137.12736 427,138.914585 427,141 C427,143.761424 424.761424,146 422,146 C420.568154,146 419.276882,145.398136 418.365369,144.433596 C418.342039,144.478177 418.318639,144.522971 418.295168,144.567977 C419.964227,146.201743 421,148.479912 421,151 C421,155.970563 416.970563,160 412,160 C410.092463,160 408.323531,159.406556 406.867758,158.394221 C406.647074,162.659379 405.190136,166.867094 402.496942,171.017367 C406.131028,171.272256 409,174.301086 409,178 C409,181.865993 405.865993,185 402,185 C398.134007,185 395,181.865993 395,178 C395,177.822056 395.00664,177.645662 395.019685,177.471054 C390.934919,177.663148 387.988839,179.995159 386.181447,184.467086 C390.705374,185.831672 394,190.031085 394,195 C394,201.075132 389.075132,206 383,206 C376.924868,206 372,201.075132 372,195 C372,193.754411 372.20703,192.557176 372.588556,191.440829 L367.935207,189.884863 C367.507417,192.779017 365.013078,195 362,195 C358.686292,195 356,192.313708 356,189 C356,188.012817 356.238408,187.081317 356.660787,186.259935 C351.157831,185.407224 348.465889,183.562441 348.584961,180.725586 C346.616211,181.650391 344.290039,182.575195 342.310547,181.650391 C341.521845,183.437131 338.505739,185.955523 332.967423,184.42611 C332.988942,184.614427 333,184.805922 333,185 C333,187.761424 330.761424,190 328,190 C326.271018,190 324.747006,189.12242 323.849098,187.788394 C323.848788,187.827128 323.848633,187.866088 323.848633,187.905273 C320.712964,189.765522 318.883232,191.4064 318.359437,192.827907 C318.764687,193.453394 319,194.199217 319,195 C319,197.209139 317.209139,199 315,199 C314.442896,199 313.912393,198.886109 313.430504,198.680341 C313.794229,199.373624 314,200.162782 314,201 C314,203.761424 311.761424,206 309,206 C307.204259,206 305.629622,205.053342 304.747913,203.63185 L303.789449,204.289248 C303.926968,204.836745 304,205.409844 304,206 C304,209.865993 300.865993,213 297,213 C293.134007,213 290,209.865993 290,206 C290,205.029524 290.197491,204.105174 290.554477,203.264947 L287.425823,202.803824 C284.965604,207.070227 279.877582,210 274,210 C265.715729,210 259,204.179702 259,197 C259,195.379778 259.342002,193.828785 259.966855,192.398286 L257.735016,189.407346 C256.559506,189.791992 255.304045,190 254,190 C247.372583,190 242,184.627417 242,178 C242,171.372583 247.372583,166 254,166 C255.01159,166 255.993944,166.125171 256.93242,166.360869 L256.952148,166.085938 C252.563105,161.205659 252.025853,155.946361 255.340394,150.308043 C254.027609,150.751467 252.555267,151 251,151 C245.477153,151 241,147.865993 241,144 C241,140.756031 244.152341,138.027449 248.429688,137.233391 L248.429688,132.900026 C247.971506,132.965359 247.492688,133 247,133 C243.686292,133 241,131.432997 241,129.5 C241,127.867088 242.916975,126.495354 245.509774,126.108803 C244.885669,123.588962 244.863448,120.511091 245.443111,116.875192 C243.467765,116.399732 242,114.621273 242,112.5 C242,110.819153 242.921552,109.353545 244.286962,108.580871 C243.237079,108.854408 242.135542,109 241,109 C233.820298,109 228,103.179702 228,96 C228,89.8430703 232.280168,84.6858274 238.027338,83.3414373 L237.943359,82.9814453 C236.933007,80.1497467 236.701962,77.6188099 237.250226,75.3886347 C234.644484,73.4643328 233,70.6434842 233,67.5 C233,61.7010101 238.596441,57 245.5,57 C247.180169,57 248.782913,57.2784523 250.2464,57.7834162 C250.0848,57.0454061 250,56.2818139 250,55.5 C250,49.6287993 254.782379,44.7852243 260.958798,44.086546 C261.330712,42.0122114 261.841058,40.2166437 262.489836,38.6998429 C259.706077,36.8200617 258,34.2868185 258,31.5 C258,25.7010101 265.387302,21 274.5,21 C276.46873,21 278.356929,21.2194167 280.107503,21.6219183 C279.396708,20.2167044 279,18.6508196 279,17 C279,10.9248678 284.372583,6 291,6 C294.589395,6 297.810712,7.44460323 300.009781,9.7341535 C300.163705,7.64895722 302.115215,6 304.5,6 C305.922866,6 307.191492,6.5870005 308.016108,7.50342661 C308.288545,3.31644444 311.982768,0 316.5,0 C321.19442,0 325,3.581722 325,8 C325,8.06658422 324.999136,8.13297844 324.997417,8.19917328 C328.028632,8.99648743 330.413681,9.54797392 332.152564,9.85363276 C332.052934,9.42059672 332,8.96709826 332,8.5 C332,5.46243388 334.238576,3 337,3 C339.761424,3 342,5.46243388 342,8.5 C342,9.18111525 341.887446,9.83331321 341.681681,10.4353161 C344.508849,10.6626355 347.6125,11.0587049 350.002585,11.7430147 C350.133632,5.23425349 355.231023,0 361.5,0 C367.851275,0 373,5.372583 373,12 C373,14.6459826 372.179299,17.0919461 370.78903,19.075838 C372.424676,19.5497417 374.134629,19.8244584 375.918888,19.8999881 C377.192985,17.5757785 379.662471,16 382.5,16 C386.642136,16 390,19.3578644 390,23.5 C390,25.5114084 389.208201,27.3378822 387.919294,28.6847298 C388.856821,29.2611208 389.806523,29.6139213 390.768401,29.7431316 C393.516474,25.6071112 397.529891,23 402,23 C410.284271,23 417,31.954305 417,43 C417,50.0990549 414.225989,56.3342367 410.044414,59.8836177 L411.421154,61.5079181 C412.042971,61.1834483 412.750062,61 413.5,61 C415.985281,61 418,63.0147186 418,65.5 C418,66.0811508 417.889836,66.6365713 417.689251,67.1465178 C418.978688,68.089886 419.971671,69.121566 420.668199,70.2415577 Z" id="Combined-Shape" stroke="#A6CE39" fill="#A6CE39"></path>
        </g>
    </g>
</svg>