<?xml version="1.0" encoding="utf-8"?>
<!-- Generator: Adobe Illustrator 16.0.0, SVG Export Plug-In . SVG Version: 6.00 Build 0)  -->
<!DOCTYPE svg PUBLIC "-//W3C//DTD SVG 1.1//EN" "http://www.w3.org/Graphics/SVG/1.1/DTD/svg11.dtd">
<svg version="1.1" id="Layer_1" xmlns="http://www.w3.org/2000/svg" xmlns:xlink="http://www.w3.org/1999/xlink" x="0px" y="0px"
	 width="512px" height="512px" viewBox="0 0 512 512" enable-background="new 0 0 512 512" xml:space="preserve">
<path d="M97.438,238c11.093,0,21.741,1.91,31.645,5.411l26.243-61.213L130.957,137.5h-19.85c-7.413,0-13.421-6.044-13.421-13.5
	s6.009-13.5,13.421-13.5h68.382c7.413,0,13.421,6.044,13.421,13.5s-6.008,13.5-13.421,13.5h-21.321l19.9,36.5H364.38l-7.858-36.5
	h-53.792c-7.412,0-13.421-6.044-13.421-13.5s6.009-13.5,13.421-13.5h75.445l27.552,128.004c3.233-0.333,6.515-0.504,9.836-0.504
	C468.271,238,511,280.98,511,334s-42.729,96-95.438,96s-95.438-42.98-95.438-96c0-40.247,24.625-74.702,59.542-88.971l-8.177-37.986
	L265.293,351.539c-2.062,2.807-5.325,4.461-8.793,4.461h-66.146c-9.888,42.416-47.734,74-92.917,74C44.729,430,2,387.02,2,334
	S44.729,238,97.438,238z M346.967,334c0,38.047,30.771,69,68.596,69s68.596-30.953,68.596-69s-30.771-69-68.596-69
	c-1.379,0-2.745,0.053-4.104,0.134l17.221,80.009c1.569,7.287-3.033,14.474-10.276,16.051c-0.958,0.209-1.912,0.31-2.854,0.31
	c-6.181,0-11.743-4.321-13.104-10.646l-16.973-78.85C362.693,283.242,346.967,306.805,346.967,334z M190.062,196l69.138,126.82
	L352.408,196H190.062z M238.085,334l-69.427-127.346l-19.893,46.4c26.524,17.053,44.109,46.932,44.109,80.946H238.085z
	 M137.923,278.346L114.062,334h51.971C166.033,311.175,154.951,290.913,137.923,278.346z M97.438,403c30.178,0,55.847-19.712,65-47
	h-65c-3.681,0-7.113-1.861-9.137-4.955c-2.021-3.093-2.362-7.002-0.903-10.4l31.01-72.334c-6.614-2.143-13.658-3.311-20.97-3.311
	c-37.824,0-68.596,30.953-68.596,69S59.613,403,97.438,403z"/>
</svg>
