<?xml version="1.0" encoding="utf-8"?>
<!-- Generator: Adobe Illustrator 16.0.0, SVG Export Plug-In . SVG Version: 6.00 Build 0)  -->
<!DOCTYPE svg PUBLIC "-//W3C//DTD SVG 1.1//EN" "http://www.w3.org/Graphics/SVG/1.1/DTD/svg11.dtd">
<svg version="1.1" id="Layer_1" xmlns="http://www.w3.org/2000/svg" xmlns:xlink="http://www.w3.org/1999/xlink" x="0px" y="0px"
	 width="512px" height="512px" viewBox="0 0 512 512" enable-background="new 0 0 512 512" xml:space="preserve">
<g>
	<path d="M418.433,93.334H94.052c-50.501,0-91.824,41.282-91.824,91.783v140.774c0,50.502,41.323,91.783,91.824,91.783h324.381
		c50.501,0,91.823-41.281,91.823-91.783V185.117C510.256,134.616,468.934,93.334,418.433,93.334z M345.854,271.111l-126.139,78.242
		c-14.677,9.096-26.688,2.419-26.667-14.863l0.145-157.87c0-17.261,12.072-24.062,26.812-15.049l125.767,76.65
		C360.489,247.214,360.531,262.016,345.854,271.111z"/>
</g>
</svg>
